<?xml version="1.0" encoding="utf-8"?>
<!-- Generator: Adobe Illustrator 16.0.0, SVG Export Plug-In . SVG Version: 6.00 Build 0)  -->
<!DOCTYPE svg PUBLIC "-//W3C//DTD SVG 1.1//EN" "http://www.w3.org/Graphics/SVG/1.1/DTD/svg11.dtd">
<svg version="1.1" id="Layer_1" xmlns="http://www.w3.org/2000/svg" xmlns:xlink="http://www.w3.org/1999/xlink" x="0px" y="0px"
	 width="37.946px" height="39.079px" viewBox="0 0 37.946 39.079" enable-background="new 0 0 37.946 39.079" xml:space="preserve">
<path fill="#FFFFFF" d="M13.188,32.032c-1.942,0-3.523,1.58-3.523,3.523c0,1.942,1.581,3.523,3.523,3.523
	c1.943,0,3.523-1.581,3.523-3.523C16.711,33.612,15.132,32.032,13.188,32.032 M13.188,37.175c-0.892,0-1.619-0.727-1.619-1.619
	s0.727-1.619,1.619-1.619c0.893,0,1.619,0.727,1.619,1.619S14.081,37.175,13.188,37.175"/>
<path fill="#FFFFFF" d="M30.329,32.032c-1.942,0-3.523,1.58-3.523,3.523c0,1.942,1.581,3.523,3.523,3.523
	c1.943,0,3.523-1.581,3.523-3.523C33.852,33.612,32.272,32.032,30.329,32.032 M30.329,37.175c-0.892,0-1.618-0.727-1.618-1.619
	s0.727-1.619,1.618-1.619c0.893,0,1.619,0.727,1.619,1.619S31.221,37.175,30.329,37.175"/>
<path fill="#FFFFFF" d="M35.64,22.164c0.531-0.075,0.946-0.498,1.013-1.031l0.471-12.841c-0.537,0.092-1.089,0.143-1.652,0.143
	c-0.256,0-0.51-0.013-0.76-0.033l-0.309,11.534l-21.868,3.125L11.077,8.464h26.052c-0.017-0.221-0.026-0.442-0.026-0.667
	c0-0.585,0.055-1.157,0.154-1.713H10.619L9.176,1.755C9.014,1.269,8.559,0.941,8.046,0.941H1.19C0.533,0.941,0,1.474,0,2.131
	c0,0.658,0.533,1.19,1.19,1.19h5.999l1.4,4.203l1.658,16.584l-3.191,4.788c-0.244,0.364-0.267,0.834-0.059,1.222
	c0.207,0.387,0.61,0.628,1.049,0.628h27.425c0.657,0,1.19-0.532,1.19-1.189c0-0.658-0.533-1.19-1.19-1.19H10.271l1.899-2.849
	L35.64,22.164z"/>
</svg>
